<?xml version="1.0" encoding="utf-8"?>
<!-- Generator: Adobe Illustrator 16.0.0, SVG Export Plug-In . SVG Version: 6.00 Build 0)  -->
<!DOCTYPE svg PUBLIC "-//W3C//DTD SVG 1.1//EN" "http://www.w3.org/Graphics/SVG/1.1/DTD/svg11.dtd">
<svg version="1.1" id="Layer_1" xmlns="http://www.w3.org/2000/svg" xmlns:xlink="http://www.w3.org/1999/xlink" x="0px" y="0px"
	 width="1024px" height="768px" viewBox="0 0 1024 768" enable-background="new 0 0 1024 768" xml:space="preserve">
<circle fill="#00C700" cx="216.098" cy="355.787" r="186.121"/>
<g>
	<path fill="#FFFFFF" d="M116.368,304.951c22.107,0,33.474,12.615,33.474,12.615l-10.117,16.487c0,0-9.993-9.118-22.357-9.118
		c-17.112,0-25.23,12.615-25.23,25.48c0,13.239,8.744,26.854,25.23,26.854c13.489,0,23.731-10.992,23.731-10.992l11.241,15.987
		c0,0-12.614,14.987-35.971,14.987c-27.978,0-46.838-19.859-46.838-46.337C69.53,324.935,89.515,304.951,116.368,304.951z"/>
	<path fill="#FFFFFF" d="M210.292,377.019h-27.853l-5.371,18.735h-22.482l30.351-89.304h22.982l30.351,89.304h-22.482
		L210.292,377.019z M196.303,326.809c0,0-1.999,9.742-3.622,15.362l-5.122,17.361h17.611l-4.996-17.361
		c-1.624-5.62-3.622-15.362-3.622-15.362H196.303z"/>
	<path fill="#FFFFFF" d="M248.26,306.45h21.858v34.473h8.993l18.486-34.473h23.481l-24.106,42.716v0.25l25.48,46.338h-24.48
		l-18.86-36.221h-8.993v36.221H248.26V306.45L248.26,306.45z"/>
	<path fill="#FFFFFF" d="M334.689,306.45h21.858v89.304h-21.858V306.45z"/>
</g>
<g>
	<path fill="#00C700" d="M486.689,246.428c21.238,0,32.158,12.119,32.158,12.119l-9.719,15.84c0,0-9.601-8.76-21.48-8.76
		c-16.438,0-24.238,12.119-24.238,24.479c0,12.72,8.4,25.8,24.238,25.8c12.961,0,22.8-10.562,22.8-10.562l10.8,15.359
		c0,0-12.119,14.399-34.559,14.399c-26.879,0-44.999-19.08-44.999-44.519C441.691,265.628,460.891,246.428,486.689,246.428z"/>
	<path fill="#00C700" d="M576.928,315.666h-26.761l-5.158,17.999h-21.6l29.158-85.796h22.079l29.159,85.796h-21.601L576.928,315.666
		z M563.488,267.427c0,0-1.92,9.359-3.479,14.759l-4.92,16.679h16.92l-4.801-16.679c-1.56-5.4-3.479-14.759-3.479-14.759H563.488
		L563.488,267.427z"/>
	<path fill="#00C700" d="M625.287,265.867h-26.039v-17.999h73.078v17.999h-26.039v67.797h-21V265.867z"/>
	<path fill="#00C700" d="M721.285,315.666h-26.758l-5.16,17.999h-21.6l29.159-85.796h22.079l29.157,85.796h-21.598L721.285,315.666z
		 M707.846,267.427c0,0-1.92,9.359-3.479,14.759l-4.92,16.679h16.919l-4.8-16.679c-1.561-5.4-3.479-14.759-3.479-14.759H707.846
		L707.846,267.427z"/>
	<path fill="#00C700" d="M769.646,265.867h-26.039v-17.999h73.077v17.999h-26.039v67.797h-20.999V265.867z"/>
	<path fill="#00C700" d="M865.645,315.666h-26.76l-5.159,17.999h-21.6l29.158-85.796h22.079l29.159,85.796h-21.601L865.645,315.666z
		 M852.205,267.427c0,0-1.92,9.359-3.479,14.759l-4.92,16.679h16.92l-4.8-16.679c-1.561-5.4-3.479-14.759-3.479-14.759H852.205
		L852.205,267.427z"/>
	<path fill="#00C700" d="M902.125,247.868h21.238l23.76,40.078c3.359,5.64,7.199,14.639,7.199,14.639h0.24
		c0,0-0.959-9.239-0.959-14.639v-40.078h20.998v85.796h-21.119l-23.879-39.958c-3.359-5.641-7.199-14.639-7.199-14.639h-0.24
		c0,0,0.961,9.239,0.961,14.639v39.958h-21V247.868L902.125,247.868z"/>
</g>
<g>
	<path fill="#00C700" d="M452.131,379.351h20.999v33.118h8.64l17.76-33.118h22.559l-23.158,41.038v0.24l24.479,44.518h-23.521
		l-18.119-34.799h-8.64v34.799h-20.999V379.351z"/>
	<path fill="#00C700" d="M578.129,447.146h-26.76l-5.16,18H524.61l29.158-85.796h22.078l29.16,85.796h-21.6L578.129,447.146z
		 M564.689,398.908c0,0-1.92,9.359-3.479,14.76l-4.92,16.68h16.92l-4.801-16.68c-1.561-5.4-3.479-14.76-3.479-14.76H564.689z"/>
	<path fill="#00C700" d="M614.607,379.351h21v33.118h8.64l17.759-33.118h22.561l-23.159,41.038v0.24l24.479,44.518h-23.518
		l-18.12-34.799h-8.641v34.799h-20.998v-85.796H614.607z"/>
	<path fill="#00C700" d="M697.646,379.351h20.999v85.796h-20.999V379.351z"/>
</g>
</svg>
